<?xml version="1.0" encoding="utf-8"?>
<!-- Generator: Adobe Illustrator 19.0.0, SVG Export Plug-In . SVG Version: 6.00 Build 0)  -->
<svg version="1.1" id="Capa_1" xmlns="http://www.w3.org/2000/svg" xmlns:xlink="http://www.w3.org/1999/xlink" x="0px" y="0px"
	 viewBox="-230 212.8 498.8 136.2" enable-background="new -230 212.8 498.8 136.2" xml:space="preserve">
<path id="XMLID_240_" fill="#C79536" d="M181.6,337.3h79v5.3h-79V337.3z M102.6,337.3h79v5.3h-79V337.3z M23.6,337.3h79v5.3h-79
	V337.3z M-55.4,337.3h79v5.3h-79V337.3z M-142.3,337.3h86.9v5.3h-86.9V337.3z M-221.3,337.3h79v5.3h-79V337.3z M181.6,243.9h79V283
	h-79V243.9z M102.6,243.9h79V283h-79V243.9z M23.6,243.9h79V283h-79V243.9z M-55.4,243.9h79V283h-79V243.9z M-142.3,243.9h86.9V283
	h-86.9V243.9z M-221.3,243.9h79V283h-79V243.9z"/>
<line id="XMLID_239_" fill="none" stroke="#FFFFFF" stroke-miterlimit="10" x1="-142.3" y1="311.3" x2="-142.3" y2="283.5"/>
<line id="XMLID_238_" fill="none" stroke="#FFFFFF" stroke-miterlimit="10" x1="-142.3" y1="331.6" x2="-142.3" y2="311.3"/>
<line id="XMLID_237_" fill="none" stroke="#FFFFFF" stroke-miterlimit="10" x1="-55.4" y1="311.3" x2="-55.4" y2="283.5"/>
<line id="XMLID_236_" fill="none" stroke="#FFFFFF" stroke-miterlimit="10" x1="-55.4" y1="331.6" x2="-55.4" y2="311.3"/>
<line id="XMLID_235_" fill="none" stroke="#FFFFFF" stroke-miterlimit="10" x1="-221.1" y1="311.3" x2="-142.3" y2="311.3"/>
<line id="XMLID_234_" fill="none" stroke="#FFFFFF" stroke-miterlimit="10" x1="-221.1" y1="331.6" x2="-142.3" y2="331.6"/>
<line id="XMLID_233_" fill="none" stroke="#FFFFFF" stroke-miterlimit="10" x1="-142.3" y1="337" x2="-142.3" y2="331.6"/>
<line id="XMLID_232_" fill="none" stroke="#FFFFFF" stroke-miterlimit="10" x1="-142.3" y1="311.3" x2="-55.4" y2="311.3"/>
<line id="XMLID_231_" fill="none" stroke="#FFFFFF" stroke-miterlimit="10" x1="-142.3" y1="331.6" x2="-55.4" y2="331.6"/>
<line id="XMLID_230_" fill="none" stroke="#FFFFFF" stroke-miterlimit="10" x1="-55.4" y1="337" x2="-55.4" y2="331.6"/>
<line id="XMLID_229_" fill="none" stroke="#FFFFFF" stroke-miterlimit="10" x1="-55.4" y1="311.3" x2="23.6" y2="311.3"/>
<line id="XMLID_228_" fill="none" stroke="#FFFFFF" stroke-miterlimit="10" x1="23.6" y1="311.3" x2="102.6" y2="311.3"/>
<line id="XMLID_227_" fill="none" stroke="#FFFFFF" stroke-miterlimit="10" x1="102.6" y1="311.3" x2="181.6" y2="311.3"/>
<line id="XMLID_226_" fill="none" stroke="#FFFFFF" stroke-miterlimit="10" x1="181.6" y1="311.3" x2="260.3" y2="311.3"/>
<line id="XMLID_225_" fill="none" stroke="#FFFFFF" stroke-miterlimit="10" x1="-55.4" y1="331.6" x2="23.6" y2="331.6"/>
<line id="XMLID_224_" fill="none" stroke="#FFFFFF" stroke-miterlimit="10" x1="23.6" y1="331.6" x2="102.6" y2="331.6"/>
<line id="XMLID_223_" fill="none" stroke="#FFFFFF" stroke-miterlimit="10" x1="102.6" y1="331.6" x2="181.6" y2="331.6"/>
<line id="XMLID_222_" fill="none" stroke="#FFFFFF" stroke-miterlimit="10" x1="181.6" y1="331.6" x2="260.3" y2="331.6"/>
<line id="XMLID_221_" fill="none" stroke="#FFFFFF" stroke-miterlimit="10" x1="23.6" y1="311.3" x2="23.6" y2="283.5"/>
<line id="XMLID_220_" fill="none" stroke="#FFFFFF" stroke-miterlimit="10" x1="102.6" y1="311.3" x2="102.6" y2="283.5"/>
<line id="XMLID_219_" fill="none" stroke="#FFFFFF" stroke-miterlimit="10" x1="181.6" y1="311.3" x2="181.6" y2="283.5"/>
<line id="XMLID_218_" fill="none" stroke="#FFFFFF" stroke-miterlimit="10" x1="23.6" y1="331.6" x2="23.6" y2="311.3"/>
<line id="XMLID_217_" fill="none" stroke="#FFFFFF" stroke-miterlimit="10" x1="102.6" y1="331.6" x2="102.6" y2="311.3"/>
<line id="XMLID_216_" fill="none" stroke="#FFFFFF" stroke-miterlimit="10" x1="181.6" y1="331.6" x2="181.6" y2="311.3"/>
<line id="XMLID_215_" fill="none" stroke="#FFFFFF" stroke-miterlimit="10" x1="23.6" y1="337" x2="23.6" y2="331.6"/>
<line id="XMLID_214_" fill="none" stroke="#FFFFFF" stroke-miterlimit="10" x1="102.6" y1="337" x2="102.6" y2="331.6"/>
<line id="XMLID_213_" fill="none" stroke="#FFFFFF" stroke-miterlimit="10" x1="181.6" y1="337" x2="181.6" y2="331.6"/>
<line id="XMLID_212_" fill="none" stroke="#FFFFFF" stroke-miterlimit="10" x1="-221.1" y1="283" x2="-142.3" y2="283"/>
<line id="XMLID_211_" fill="none" stroke="#FFFFFF" stroke-miterlimit="10" x1="-142.3" y1="283" x2="-55.4" y2="283"/>
<line id="XMLID_210_" fill="none" stroke="#FFFFFF" stroke-miterlimit="10" x1="-55.4" y1="283" x2="23.6" y2="283"/>
<line id="XMLID_209_" fill="none" stroke="#FFFFFF" stroke-miterlimit="10" x1="23.6" y1="283" x2="102.6" y2="283"/>
<line id="XMLID_208_" fill="none" stroke="#FFFFFF" stroke-miterlimit="10" x1="102.6" y1="283" x2="181.6" y2="283"/>
<line id="XMLID_207_" fill="none" stroke="#FFFFFF" stroke-miterlimit="10" x1="181.6" y1="283" x2="260.3" y2="283"/>
<line id="XMLID_206_" fill="none" stroke="#C79536" stroke-miterlimit="10" x1="-142.3" y1="282.5" x2="-142.3" y2="244.1"/>
<line id="XMLID_205_" fill="none" stroke="#C79536" stroke-miterlimit="10" x1="-55.4" y1="282.5" x2="-55.4" y2="244.1"/>
<line id="XMLID_204_" fill="none" stroke="#C79536" stroke-miterlimit="10" x1="23.6" y1="282.5" x2="23.6" y2="244.1"/>
<line id="XMLID_203_" fill="none" stroke="#C79536" stroke-miterlimit="10" x1="102.6" y1="282.5" x2="102.6" y2="244.1"/>
<line id="XMLID_202_" fill="none" stroke="#C79536" stroke-miterlimit="10" x1="181.6" y1="282.5" x2="181.6" y2="244.1"/>
<line id="XMLID_201_" fill="none" stroke="#C79536" stroke-linecap="round" stroke-linejoin="round" stroke-miterlimit="10" stroke-dasharray="0,1.466" x1="-142.3" y1="309.9" x2="-142.3" y2="284.2"/>
<path id="XMLID_198_" fill="none" stroke="#C79536" stroke-linecap="round" stroke-linejoin="round" stroke-miterlimit="10" d="
	M-142.3,283.5L-142.3,283.5 M-142.3,311.3L-142.3,311.3"/>
<line id="XMLID_197_" fill="none" stroke="#C79536" stroke-linecap="round" stroke-linejoin="round" stroke-miterlimit="10" stroke-dasharray="0,1.448" x1="-142.3" y1="330.2" x2="-142.3" y2="312.1"/>
<path id="XMLID_194_" fill="none" stroke="#C79536" stroke-linecap="round" stroke-linejoin="round" stroke-miterlimit="10" d="
	M-142.3,311.3L-142.3,311.3 M-142.3,331.6L-142.3,331.6"/>
<line id="XMLID_193_" fill="none" stroke="#C79536" stroke-linecap="round" stroke-linejoin="round" stroke-miterlimit="10" stroke-dasharray="0,1.466" x1="-55.4" y1="309.9" x2="-55.4" y2="284.2"/>
<path id="XMLID_190_" fill="none" stroke="#C79536" stroke-linecap="round" stroke-linejoin="round" stroke-miterlimit="10" d="
	M-55.4,283.5L-55.4,283.5 M-55.4,311.3L-55.4,311.3"/>
<line id="XMLID_189_" fill="none" stroke="#C79536" stroke-linecap="round" stroke-linejoin="round" stroke-miterlimit="10" stroke-dasharray="0,1.448" x1="-55.4" y1="330.2" x2="-55.4" y2="312.1"/>
<path id="XMLID_186_" fill="none" stroke="#C79536" stroke-linecap="round" stroke-linejoin="round" stroke-miterlimit="10" d="
	M-55.4,311.3L-55.4,311.3 M-55.4,331.6L-55.4,331.6"/>
<line id="XMLID_185_" fill="none" stroke="#C79536" stroke-linecap="round" stroke-linejoin="round" stroke-miterlimit="10" stroke-dasharray="0,1.514" x1="-219.5" y1="311.3" x2="-143.1" y2="311.3"/>
<path id="XMLID_182_" fill="none" stroke="#C79536" stroke-linecap="round" stroke-linejoin="round" stroke-miterlimit="10" d="
	M-142.3,311.3L-142.3,311.3 M-221.1,311.3L-221.1,311.3"/>
<line id="XMLID_181_" fill="none" stroke="#C79536" stroke-linecap="round" stroke-linejoin="round" stroke-miterlimit="10" stroke-dasharray="0,1.514" x1="-219.5" y1="331.6" x2="-143.1" y2="331.6"/>
<path id="XMLID_178_" fill="none" stroke="#C79536" stroke-linecap="round" stroke-linejoin="round" stroke-miterlimit="10" d="
	M-142.3,331.6L-142.3,331.6 M-221.1,331.6L-221.1,331.6"/>
<line id="XMLID_177_" fill="none" stroke="#C79536" stroke-linecap="round" stroke-linejoin="round" stroke-miterlimit="10" stroke-dasharray="0,1.355" x1="-142.3" y1="335.7" x2="-142.3" y2="332.3"/>
<path id="XMLID_174_" fill="none" stroke="#C79536" stroke-linecap="round" stroke-linejoin="round" stroke-miterlimit="10" d="
	M-142.3,331.6L-142.3,331.6 M-142.3,337L-142.3,337"/>
<line id="XMLID_173_" fill="none" stroke="#C79536" stroke-linecap="round" stroke-linejoin="round" stroke-miterlimit="10" stroke-dasharray="0,1.498" x1="-140.8" y1="311.3" x2="-56.2" y2="311.3"/>
<path id="XMLID_170_" fill="none" stroke="#C79536" stroke-linecap="round" stroke-linejoin="round" stroke-miterlimit="10" d="
	M-55.4,311.3L-55.4,311.3 M-142.3,311.3L-142.3,311.3"/>
<line id="XMLID_169_" fill="none" stroke="#C79536" stroke-linecap="round" stroke-linejoin="round" stroke-miterlimit="10" stroke-dasharray="0,1.498" x1="-140.8" y1="331.6" x2="-56.2" y2="331.6"/>
<path id="XMLID_166_" fill="none" stroke="#C79536" stroke-linecap="round" stroke-linejoin="round" stroke-miterlimit="10" d="
	M-55.4,331.6L-55.4,331.6 M-142.3,331.6L-142.3,331.6"/>
<line id="XMLID_165_" fill="none" stroke="#C79536" stroke-linecap="round" stroke-linejoin="round" stroke-miterlimit="10" stroke-dasharray="0,1.355" x1="-55.4" y1="335.7" x2="-55.4" y2="332.3"/>
<path id="XMLID_162_" fill="none" stroke="#C79536" stroke-linecap="round" stroke-linejoin="round" stroke-miterlimit="10" d="
	M-55.4,331.6L-55.4,331.6 M-55.4,337L-55.4,337"/>
<line id="XMLID_161_" fill="none" stroke="#C79536" stroke-linecap="round" stroke-linejoin="round" stroke-miterlimit="10" stroke-dasharray="0,1.491" x1="-53.9" y1="311.3" x2="22.8" y2="311.3"/>
<path id="XMLID_158_" fill="none" stroke="#C79536" stroke-linecap="round" stroke-linejoin="round" stroke-miterlimit="10" d="
	M23.6,311.3L23.6,311.3 M-55.4,311.3L-55.4,311.3"/>
<line id="XMLID_157_" fill="none" stroke="#C79536" stroke-linecap="round" stroke-linejoin="round" stroke-miterlimit="10" stroke-dasharray="0,1.491" x1="25.1" y1="311.3" x2="101.8" y2="311.3"/>
<path id="XMLID_154_" fill="none" stroke="#C79536" stroke-linecap="round" stroke-linejoin="round" stroke-miterlimit="10" d="
	M102.6,311.3L102.6,311.3 M23.6,311.3L23.6,311.3"/>
<line id="XMLID_153_" fill="none" stroke="#C79536" stroke-linecap="round" stroke-linejoin="round" stroke-miterlimit="10" stroke-dasharray="0,1.491" x1="104.1" y1="311.3" x2="180.8" y2="311.3"/>
<path id="XMLID_150_" fill="none" stroke="#C79536" stroke-linecap="round" stroke-linejoin="round" stroke-miterlimit="10" d="
	M181.6,311.3L181.6,311.3 M102.6,311.3L102.6,311.3"/>
<line id="XMLID_149_" fill="none" stroke="#C79536" stroke-linecap="round" stroke-linejoin="round" stroke-miterlimit="10" stroke-dasharray="0,1.514" x1="183.1" y1="311.3" x2="259.6" y2="311.3"/>
<path id="XMLID_146_" fill="none" stroke="#C79536" stroke-linecap="round" stroke-linejoin="round" stroke-miterlimit="10" d="
	M260.3,311.3L260.3,311.3 M181.6,311.3L181.6,311.3"/>
<line id="XMLID_145_" fill="none" stroke="#C79536" stroke-linecap="round" stroke-linejoin="round" stroke-miterlimit="10" stroke-dasharray="0,1.491" x1="-53.9" y1="331.6" x2="22.8" y2="331.6"/>
<path id="XMLID_142_" fill="none" stroke="#C79536" stroke-linecap="round" stroke-linejoin="round" stroke-miterlimit="10" d="
	M23.6,331.6L23.6,331.6 M-55.4,331.6L-55.4,331.6"/>
<line id="XMLID_141_" fill="none" stroke="#C79536" stroke-linecap="round" stroke-linejoin="round" stroke-miterlimit="10" stroke-dasharray="0,1.491" x1="25.1" y1="331.6" x2="101.8" y2="331.6"/>
<path id="XMLID_138_" fill="none" stroke="#C79536" stroke-linecap="round" stroke-linejoin="round" stroke-miterlimit="10" d="
	M102.6,331.6L102.6,331.6 M23.6,331.6L23.6,331.6"/>
<line id="XMLID_137_" fill="none" stroke="#C79536" stroke-linecap="round" stroke-linejoin="round" stroke-miterlimit="10" stroke-dasharray="0,1.491" x1="104.1" y1="331.6" x2="180.8" y2="331.6"/>
<path id="XMLID_134_" fill="none" stroke="#C79536" stroke-linecap="round" stroke-linejoin="round" stroke-miterlimit="10" d="
	M181.6,331.6L181.6,331.6 M102.6,331.6L102.6,331.6"/>
<line id="XMLID_133_" fill="none" stroke="#C79536" stroke-linecap="round" stroke-linejoin="round" stroke-miterlimit="10" stroke-dasharray="0,1.514" x1="183.1" y1="331.6" x2="259.6" y2="331.6"/>
<path id="XMLID_130_" fill="none" stroke="#C79536" stroke-linecap="round" stroke-linejoin="round" stroke-miterlimit="10" d="
	M260.3,331.6L260.3,331.6 M181.6,331.6L181.6,331.6"/>
<line id="XMLID_129_" fill="none" stroke="#C79536" stroke-linecap="round" stroke-linejoin="round" stroke-miterlimit="10" stroke-dasharray="0,1.466" x1="23.6" y1="309.9" x2="23.6" y2="284.2"/>
<path id="XMLID_126_" fill="none" stroke="#C79536" stroke-linecap="round" stroke-linejoin="round" stroke-miterlimit="10" d="
	M23.6,283.5L23.6,283.5 M23.6,311.3L23.6,311.3"/>
<line id="XMLID_125_" fill="none" stroke="#C79536" stroke-linecap="round" stroke-linejoin="round" stroke-miterlimit="10" stroke-dasharray="0,1.466" x1="102.6" y1="309.9" x2="102.6" y2="284.2"/>
<path id="XMLID_122_" fill="none" stroke="#C79536" stroke-linecap="round" stroke-linejoin="round" stroke-miterlimit="10" d="
	M102.6,283.5L102.6,283.5 M102.6,311.3L102.6,311.3"/>
<line id="XMLID_121_" fill="none" stroke="#C79536" stroke-linecap="round" stroke-linejoin="round" stroke-miterlimit="10" stroke-dasharray="0,1.466" x1="181.6" y1="309.9" x2="181.6" y2="284.2"/>
<path id="XMLID_118_" fill="none" stroke="#C79536" stroke-linecap="round" stroke-linejoin="round" stroke-miterlimit="10" d="
	M181.6,283.5L181.6,283.5 M181.6,311.3L181.6,311.3"/>
<line id="XMLID_117_" fill="none" stroke="#C79536" stroke-linecap="round" stroke-linejoin="round" stroke-miterlimit="10" stroke-dasharray="0,1.448" x1="23.6" y1="330.2" x2="23.6" y2="312.1"/>
<path id="XMLID_114_" fill="none" stroke="#C79536" stroke-linecap="round" stroke-linejoin="round" stroke-miterlimit="10" d="
	M23.6,311.3L23.6,311.3 M23.6,331.6L23.6,331.6"/>
<line id="XMLID_113_" fill="none" stroke="#C79536" stroke-linecap="round" stroke-linejoin="round" stroke-miterlimit="10" stroke-dasharray="0,1.448" x1="102.6" y1="330.2" x2="102.6" y2="312.1"/>
<path id="XMLID_110_" fill="none" stroke="#C79536" stroke-linecap="round" stroke-linejoin="round" stroke-miterlimit="10" d="
	M102.6,311.3L102.6,311.3 M102.6,331.6L102.6,331.6"/>
<line id="XMLID_109_" fill="none" stroke="#C79536" stroke-linecap="round" stroke-linejoin="round" stroke-miterlimit="10" stroke-dasharray="0,1.448" x1="181.6" y1="330.2" x2="181.6" y2="312.1"/>
<path id="XMLID_106_" fill="none" stroke="#C79536" stroke-linecap="round" stroke-linejoin="round" stroke-miterlimit="10" d="
	M181.6,311.3L181.6,311.3 M181.6,331.6L181.6,331.6"/>
<line id="XMLID_105_" fill="none" stroke="#C79536" stroke-linecap="round" stroke-linejoin="round" stroke-miterlimit="10" stroke-dasharray="0,1.355" x1="23.6" y1="335.7" x2="23.6" y2="332.3"/>
<path id="XMLID_102_" fill="none" stroke="#C79536" stroke-linecap="round" stroke-linejoin="round" stroke-miterlimit="10" d="
	M23.6,331.6L23.6,331.6 M23.6,337L23.6,337"/>
<line id="XMLID_101_" fill="none" stroke="#C79536" stroke-linecap="round" stroke-linejoin="round" stroke-miterlimit="10" stroke-dasharray="0,1.355" x1="102.6" y1="335.7" x2="102.6" y2="332.3"/>
<path id="XMLID_98_" fill="none" stroke="#C79536" stroke-linecap="round" stroke-linejoin="round" stroke-miterlimit="10" d="
	M102.6,331.6L102.6,331.6 M102.6,337L102.6,337"/>
<line id="XMLID_97_" fill="none" stroke="#C79536" stroke-linecap="round" stroke-linejoin="round" stroke-miterlimit="10" stroke-dasharray="0,1.355" x1="181.6" y1="335.7" x2="181.6" y2="332.3"/>
<path id="XMLID_94_" fill="none" stroke="#C79536" stroke-linecap="round" stroke-linejoin="round" stroke-miterlimit="10" d="
	M181.6,331.6L181.6,331.6 M181.6,337L181.6,337"/>
<line id="XMLID_93_" fill="none" stroke="#FFFFFF" stroke-linecap="round" stroke-linejoin="round" stroke-miterlimit="10" stroke-dasharray="0,1.514" x1="-219.5" y1="283" x2="-143.1" y2="283"/>
<path id="XMLID_90_" fill="none" stroke="#FFFFFF" stroke-linecap="round" stroke-linejoin="round" stroke-miterlimit="10" d="
	M-142.3,283L-142.3,283 M-221.1,283L-221.1,283"/>
<line id="XMLID_89_" fill="none" stroke="#FFFFFF" stroke-linecap="round" stroke-linejoin="round" stroke-miterlimit="10" stroke-dasharray="0,1.498" x1="-140.8" y1="283" x2="-56.2" y2="283"/>
<path id="XMLID_86_" fill="none" stroke="#FFFFFF" stroke-linecap="round" stroke-linejoin="round" stroke-miterlimit="10" d="
	M-55.4,283L-55.4,283 M-142.3,283L-142.3,283"/>
<line id="XMLID_85_" fill="none" stroke="#FFFFFF" stroke-linecap="round" stroke-linejoin="round" stroke-miterlimit="10" stroke-dasharray="0,1.491" x1="-53.9" y1="283" x2="22.8" y2="283"/>
<path id="XMLID_82_" fill="none" stroke="#FFFFFF" stroke-linecap="round" stroke-linejoin="round" stroke-miterlimit="10" d="
	M23.6,283L23.6,283 M-55.4,283L-55.4,283"/>
<line id="XMLID_81_" fill="none" stroke="#FFFFFF" stroke-linecap="round" stroke-linejoin="round" stroke-miterlimit="10" stroke-dasharray="0,1.491" x1="25.1" y1="283" x2="101.8" y2="283"/>
<path id="XMLID_78_" fill="none" stroke="#FFFFFF" stroke-linecap="round" stroke-linejoin="round" stroke-miterlimit="10" d="
	M102.6,283L102.6,283 M23.6,283L23.6,283"/>
<line id="XMLID_77_" fill="none" stroke="#FFFFFF" stroke-linecap="round" stroke-linejoin="round" stroke-miterlimit="10" stroke-dasharray="0,1.491" x1="104.1" y1="283" x2="180.8" y2="283"/>
<path id="XMLID_74_" fill="none" stroke="#FFFFFF" stroke-linecap="round" stroke-linejoin="round" stroke-miterlimit="10" d="
	M181.6,283L181.6,283 M102.6,283L102.6,283"/>
<line id="XMLID_73_" fill="none" stroke="#FFFFFF" stroke-linecap="round" stroke-linejoin="round" stroke-miterlimit="10" stroke-dasharray="0,1.514" x1="183.1" y1="283" x2="259.6" y2="283"/>
<path id="XMLID_70_" fill="none" stroke="#FFFFFF" stroke-linecap="round" stroke-linejoin="round" stroke-miterlimit="10" d="
	M260.3,283L260.3,283 M181.6,283L181.6,283"/>
<line id="XMLID_69_" fill="none" stroke="#FFFFFF" stroke-linecap="round" stroke-linejoin="round" stroke-miterlimit="10" stroke-dasharray="0,1.475" x1="-142.3" y1="281" x2="-142.3" y2="244.9"/>
<path id="XMLID_66_" fill="none" stroke="#FFFFFF" stroke-linecap="round" stroke-linejoin="round" stroke-miterlimit="10" d="
	M-142.3,244.1L-142.3,244.1 M-142.3,282.5L-142.3,282.5"/>
<line id="XMLID_65_" fill="none" stroke="#FFFFFF" stroke-linecap="round" stroke-linejoin="round" stroke-miterlimit="10" stroke-dasharray="0,1.475" x1="-55.4" y1="281" x2="-55.4" y2="244.9"/>
<path id="XMLID_62_" fill="none" stroke="#FFFFFF" stroke-linecap="round" stroke-linejoin="round" stroke-miterlimit="10" d="
	M-55.4,244.1L-55.4,244.1 M-55.4,282.5L-55.4,282.5"/>
<line id="XMLID_61_" fill="none" stroke="#FFFFFF" stroke-linecap="round" stroke-linejoin="round" stroke-miterlimit="10" stroke-dasharray="0,1.475" x1="23.6" y1="281" x2="23.6" y2="244.9"/>
<path id="XMLID_58_" fill="none" stroke="#FFFFFF" stroke-linecap="round" stroke-linejoin="round" stroke-miterlimit="10" d="
	M23.6,244.1L23.6,244.1 M23.6,282.5L23.6,282.5"/>
<line id="XMLID_57_" fill="none" stroke="#FFFFFF" stroke-linecap="round" stroke-linejoin="round" stroke-miterlimit="10" stroke-dasharray="0,1.475" x1="102.6" y1="281" x2="102.6" y2="244.9"/>
<path id="XMLID_54_" fill="none" stroke="#FFFFFF" stroke-linecap="round" stroke-linejoin="round" stroke-miterlimit="10" d="
	M102.6,244.1L102.6,244.1 M102.6,282.5L102.6,282.5"/>
<line id="XMLID_53_" fill="none" stroke="#FFFFFF" stroke-linecap="round" stroke-linejoin="round" stroke-miterlimit="10" stroke-dasharray="0,1.475" x1="181.6" y1="281" x2="181.6" y2="244.9"/>
<path id="XMLID_50_" fill="none" stroke="#FFFFFF" stroke-linecap="round" stroke-linejoin="round" stroke-miterlimit="10" d="
	M181.6,244.1L181.6,244.1 M181.6,282.5L181.6,282.5"/>
<text id="XMLID_49_" transform="matrix(1 0 0 1 -218.4727 232.5347)"><tspan x="0" y="0" fill="#595857" font-family="'GillSans-Light'" font-size="13px">O</tspan><tspan x="10.9" y="0" fill="#595857" font-family="'GillSans-Light'" font-size="13px">f</tspan><tspan x="13.8" y="0" fill="#595857" font-family="'GillSans-Light'" font-size="13px">e</tspan><tspan x="20.2" y="0" fill="#595857" font-family="'GillSans-Light'" font-size="13px">r</tspan><tspan x="25.4" y="0" fill="#595857" font-family="'GillSans-Light'" font-size="13px">t</tspan><tspan x="29.6" y="0" fill="#595857" font-family="'GillSans-Light'" font-size="13px">a </tspan><tspan x="38.8" y="0" fill="#595857" font-family="'GillSans-Light'" font-size="13px">d</tspan><tspan x="45.5" y="0" fill="#595857" font-family="'GillSans-Light'" font-size="13px">e </tspan><tspan x="55.3" y="0" fill="#595857" font-family="'GillSans-Light'" font-size="13px">p</tspan><tspan x="62" y="0" fill="#595857" font-family="'GillSans-Light'" font-size="13px">r</tspan><tspan x="66.5" y="0" fill="#595857" font-family="'GillSans-Light'" font-size="13px">o</tspan><tspan x="73.5" y="0" fill="#595857" font-family="'GillSans-Light'" font-size="13px">d</tspan><tspan x="80.2" y="0" fill="#595857" font-family="'GillSans-Light'" font-size="13px">u</tspan><tspan x="86.6" y="0" fill="#595857" font-family="'GillSans-Light'" font-size="13px">c</tspan><tspan x="92.5" y="0" fill="#595857" font-family="'GillSans-Light'" font-size="13px">t</tspan><tspan x="96.3" y="0" fill="#595857" font-family="'GillSans-Light'" font-size="13px">o</tspan><tspan x="103.3" y="0" fill="#595857" font-family="'GillSans-Light'" font-size="13px">s</tspan></text>
<text id="XMLID_48_" transform="matrix(1 0 0 1 -203.5205 266.5172)"><tspan x="0" y="0" fill="#FFFFFF" font-family="'GillSans-Bold'" font-size="9px">P</tspan><tspan x="6.4" y="0" fill="#FFFFFF" font-family="'GillSans-Bold'" font-size="9px">r</tspan><tspan x="10.8" y="0" fill="#FFFFFF" font-family="'GillSans-Bold'" font-size="9px">o</tspan><tspan x="16.7" y="0" fill="#FFFFFF" font-family="'GillSans-Bold'" font-size="9px">d</tspan><tspan x="22.6" y="0" fill="#FFFFFF" font-family="'GillSans-Bold'" font-size="9px">u</tspan><tspan x="28.4" y="0" fill="#FFFFFF" font-family="'GillSans-Bold'" font-size="9px">c</tspan><tspan x="33.2" y="0" fill="#FFFFFF" font-family="'GillSans-Bold'" font-size="9px">t</tspan><tspan x="37.6" y="0" fill="#FFFFFF" font-family="'GillSans-Bold'" font-size="9px">o</tspan></text>
<text id="XMLID_47_" transform="matrix(1 0 0 1 -117.9307 266.5172)"><tspan x="0" y="0" fill="#FFFFFF" font-family="'GillSans-Bold'" font-size="9px">C</tspan><tspan x="6.9" y="0" fill="#FFFFFF" font-family="'GillSans-Bold'" font-size="9px">a</tspan><tspan x="12.2" y="0" fill="#FFFFFF" font-family="'GillSans-Bold'" font-size="9px">l</tspan><tspan x="15" y="0" fill="#FFFFFF" font-family="'GillSans-Bold'" font-size="9px">i</tspan><tspan x="17.9" y="0" fill="#FFFFFF" font-family="'GillSans-Bold'" font-size="9px">b</tspan><tspan x="23.8" y="0" fill="#FFFFFF" font-family="'GillSans-Bold'" font-size="9px">r</tspan><tspan x="28.2" y="0" fill="#FFFFFF" font-family="'GillSans-Bold'" font-size="9px">e</tspan><tspan x="33.7" y="0" fill="#FFFFFF" font-family="'GillSans-Bold'" font-size="9px">s</tspan></text>
<text id="XMLID_46_" transform="matrix(1 0 0 1 -38.8745 266.5172)"><tspan x="0" y="0" fill="#FFFFFF" font-family="'GillSans-Bold'" font-size="9px">M</tspan><tspan x="8.8" y="0" fill="#FFFFFF" font-family="'GillSans-Bold'" font-size="9px">u</tspan><tspan x="14.6" y="0" fill="#FFFFFF" font-family="'GillSans-Bold'" font-size="9px">l</tspan><tspan x="17.4" y="0" fill="#FFFFFF" font-family="'GillSans-Bold'" font-size="9px">t</tspan><tspan x="21.9" y="0" fill="#FFFFFF" font-family="'GillSans-Bold'" font-size="9px">i</tspan><tspan x="24.7" y="0" fill="#FFFFFF" font-family="'GillSans-Bold'" font-size="9px">c</tspan><tspan x="29.5" y="0" fill="#FFFFFF" font-family="'GillSans-Bold'" font-size="9px">a</tspan><tspan x="34.9" y="0" fill="#FFFFFF" font-family="'GillSans-Bold'" font-size="9px">p</tspan><tspan x="40.8" y="0" fill="#FFFFFF" font-family="'GillSans-Bold'" font-size="9px">a</tspan></text>
<text id="XMLID_45_" transform="matrix(1 0 0 1 49.2085 266.5172)"><tspan x="0" y="0" fill="#FFFFFF" font-family="'GillSans-Bold'" font-size="9px">C</tspan><tspan x="6.9" y="0" fill="#FFFFFF" font-family="'GillSans-Bold'" font-size="9px">a</tspan><tspan x="12.2" y="0" fill="#FFFFFF" font-family="'GillSans-Bold'" font-size="9px">p</tspan><tspan x="18.1" y="0" fill="#FFFFFF" font-family="'GillSans-Bold'" font-size="9px">a</tspan><tspan x="23.4" y="0" fill="#FFFFFF" font-family="'GillSans-Bold'" font-size="9px">s</tspan></text>
<text id="XMLID_44_" transform="matrix(1 0 0 1 125.8794 255.7174)"><tspan x="0" y="0" fill="#FFFFFF" font-family="'GillSans-Bold'" font-size="9px">G</tspan><tspan x="7.3" y="0" fill="#FFFFFF" font-family="'GillSans-Bold'" font-size="9px">r</tspan><tspan x="11.8" y="0" fill="#FFFFFF" font-family="'GillSans-Bold'" font-size="9px">os</tspan><tspan x="22.1" y="0" fill="#FFFFFF" font-family="'GillSans-Bold'" font-size="9px">o</tspan><tspan x="27.9" y="0" fill="#FFFFFF" font-family="'GillSans-Bold'" font-size="9px">r </tspan></text>
<text id="XMLID_43_" transform="matrix(1 0 0 1 118.2114 266.5172)"><tspan x="0" y="0" fill="#FFFFFF" font-family="'GillSans-Bold'" font-size="9px">d</tspan><tspan x="5.9" y="0" fill="#FFFFFF" font-family="'GillSans-Bold'" font-size="9px">i</tspan><tspan x="8.7" y="0" fill="#FFFFFF" font-family="'GillSans-Bold'" font-size="9px">s</tspan><tspan x="13.2" y="0" fill="#FFFFFF" font-family="'GillSans-Bold'" font-size="9px">p</tspan><tspan x="19" y="0" fill="#FFFFFF" font-family="'GillSans-Bold'" font-size="9px">o</tspan><tspan x="24.9" y="0" fill="#FFFFFF" font-family="'GillSans-Bold'" font-size="9px">n</tspan><tspan x="30.8" y="0" fill="#FFFFFF" font-family="'GillSans-Bold'" font-size="9px">i</tspan><tspan x="33.7" y="0" fill="#FFFFFF" font-family="'GillSans-Bold'" font-size="9px">b</tspan><tspan x="39.5" y="0" fill="#FFFFFF" font-family="'GillSans-Bold'" font-size="9px">l</tspan><tspan x="42.3" y="0" fill="#FFFFFF" font-family="'GillSans-Bold'" font-size="9px">e </tspan></text>
<text id="XMLID_42_" transform="matrix(1 0 0 1 123.3232 277.317)"><tspan x="0" y="0" fill="#FFFFFF" font-family="'GillSans-Bold'" font-size="9px">(</tspan><tspan x="3.3" y="0" fill="#FFFFFF" font-family="'GillSans-Bold'" font-size="9px">m</tspan><tspan x="12.3" y="0" fill="#FFFFFF" font-family="'GillSans-Bold'" font-size="9px">i</tspan><tspan x="15.2" y="0" fill="#FFFFFF" font-family="'GillSans-Bold'" font-size="9px">c</tspan><tspan x="20" y="0" fill="#FFFFFF" font-family="'GillSans-Bold'" font-size="9px">r</tspan><tspan x="24.6" y="0" fill="#FFFFFF" font-family="'GillSans-Bold'" font-size="9px">a</tspan><tspan x="29.9" y="0" fill="#FFFFFF" font-family="'GillSans-Bold'" font-size="9px">s</tspan><tspan x="34.1" y="0" fill="#FFFFFF" font-family="'GillSans-Bold'" font-size="9px">)</tspan></text>
<text id="XMLID_41_" transform="matrix(1 0 0 1 192.623 266.5172)"><tspan x="0" y="0" fill="#FFFFFF" font-family="'GillSans-Bold'" font-size="9px">Con</tspan><tspan x="18.6" y="0" fill="#FFFFFF" font-family="'GillSans-Bold'" font-size="9px">t</tspan><tspan x="23" y="0" fill="#FFFFFF" font-family="'GillSans-Bold'" font-size="9px">r</tspan><tspan x="27.6" y="0" fill="#FFFFFF" font-family="'GillSans-Bold'" font-size="9px">a</tspan><tspan x="32.9" y="0" fill="#FFFFFF" font-family="'GillSans-Bold'" font-size="9px">c</tspan><tspan x="37.6" y="0" fill="#FFFFFF" font-family="'GillSans-Bold'" font-size="9px">c</tspan><tspan x="42.4" y="0" fill="#FFFFFF" font-family="'GillSans-Bold'" font-size="9px">i</tspan><tspan x="45.3" y="0" fill="#FFFFFF" font-family="'GillSans-Bold'" font-size="9px">ó</tspan><tspan x="51.2" y="0" fill="#FFFFFF" font-family="'GillSans-Bold'" font-size="9px">n</tspan></text>
<text id="XMLID_40_" transform="matrix(1 0 0 1 -184.8999 300.2759)" fill="#595857" font-family="'GillSans-Light'" font-size="9px">X</text>
<text id="XMLID_39_" transform="matrix(1 0 0 1 -112.7827 300.2759)"><tspan x="0" y="0" fill="#595857" font-family="'GillSans-Light'" font-size="9px">3</tspan><tspan x="4.6" y="0" fill="#595857" font-family="'GillSans-Light'" font-size="9px">4</tspan><tspan x="9.7" y="0" fill="#595857" font-family="'GillSans-Light'" font-size="9px">–</tspan><tspan x="14.1" y="0" fill="#595857" font-family="'GillSans-Light'" font-size="9px">2</tspan><tspan x="18.7" y="0" fill="#595857" font-family="'GillSans-Light'" font-size="9px">0</tspan><tspan x="23.3" y="0" fill="#595857" font-family="'GillSans-Light'" font-size="9px">5</tspan></text>
<text id="XMLID_38_" transform="matrix(1 0 0 1 -21.6396 300.2759)"><tspan x="0" y="0" fill="#595857" font-family="'GillSans-Light'" font-size="9px">O</tspan><tspan x="7.6" y="0" fill="#595857" font-family="'GillSans-Light'" font-size="9px">k</tspan></text>
<text id="XMLID_37_" transform="matrix(1 0 0 1 60.8364 300.2759)" fill="#595857" font-family="'GillSans-Light'" font-size="9px">5</text>
<text id="XMLID_36_" transform="matrix(1 0 0 1 123.2871 294.8755)"><tspan x="0" y="0" fill="#595857" font-family="'GillSans-Light'" font-size="9px">3</tspan><tspan x="4.7" y="0" fill="#595857" font-family="'GillSans-Light'" font-size="9px">8</tspan><tspan x="9.4" y="0" fill="#595857" font-family="'GillSans-Light'" font-size="9px">, </tspan><tspan x="13.5" y="0" fill="#595857" font-family="'GillSans-Light'" font-size="9px">4</tspan><tspan x="17.8" y="0" fill="#595857" font-family="'GillSans-Light'" font-size="9px">3</tspan><tspan x="22.5" y="0" fill="#595857" font-family="'GillSans-Light'" font-size="9px">, </tspan><tspan x="26.6" y="0" fill="#595857" font-family="'GillSans-Light'" font-size="9px">4</tspan><tspan x="31.2" y="0" fill="#595857" font-family="'GillSans-Light'" font-size="9px">8</tspan><tspan x="36" y="0" fill="#595857" font-family="'GillSans-Light'" font-size="9px">, </tspan></text>
<text id="XMLID_35_" transform="matrix(1 0 0 1 124.3042 305.6763)"><tspan x="0" y="0" fill="#595857" font-family="'GillSans-Light'" font-size="9px">5</tspan><tspan x="4.6" y="0" fill="#595857" font-family="'GillSans-Light'" font-size="9px">0</tspan><tspan x="9.3" y="0" fill="#595857" font-family="'GillSans-Light'" font-size="9px">, </tspan><tspan x="13.4" y="0" fill="#595857" font-family="'GillSans-Light'" font-size="9px">5</tspan><tspan x="17.8" y="0" fill="#595857" font-family="'GillSans-Light'" font-size="9px">2</tspan><tspan x="22.5" y="0" fill="#595857" font-family="'GillSans-Light'" font-size="9px">, </tspan><tspan x="26.6" y="0" fill="#595857" font-family="'GillSans-Light'" font-size="9px">5</tspan><tspan x="31" y="0" fill="#595857" font-family="'GillSans-Light'" font-size="9px">5</tspan></text>
<text id="XMLID_34_" transform="matrix(1 0 0 1 213.4492 300.2759)"><tspan x="0" y="0" fill="#595857" font-family="'GillSans-Light'" font-size="9px">1</tspan><tspan x="4.2" y="0" fill="#595857" font-family="'GillSans-Light'" font-size="9px">0</tspan><tspan x="9" y="0" fill="#595857" font-family="'GillSans-Light'" font-size="9px">%</tspan></text>
<text id="XMLID_33_" transform="matrix(1 0 0 1 -187.7168 324.5845)"><tspan x="0" y="0" fill="#595857" font-family="'GillSans-Light'" font-size="9px">X</tspan><tspan x="6.7" y="0" fill="#595857" font-family="'GillSans-Light'" font-size="9px">T</tspan></text>
<text id="XMLID_32_" transform="matrix(1 0 0 1 -112.5488 324.5845)"><tspan x="0" y="0" fill="#595857" font-family="'GillSans-Light'" font-size="9px">3</tspan><tspan x="4.6" y="0" fill="#595857" font-family="'GillSans-Light'" font-size="9px">4</tspan><tspan x="9.7" y="0" fill="#595857" font-family="'GillSans-Light'" font-size="9px">–</tspan><tspan x="14.1" y="0" fill="#595857" font-family="'GillSans-Light'" font-size="9px">1</tspan><tspan x="18.2" y="0" fill="#595857" font-family="'GillSans-Light'" font-size="9px">9</tspan><tspan x="22.9" y="0" fill="#595857" font-family="'GillSans-Light'" font-size="9px">0</tspan></text>
<text id="XMLID_31_" transform="matrix(1 0 0 1 -21.6489 324.5845)"><tspan x="0" y="0" fill="#595857" font-family="'GillSans-Light'" font-size="9px">O</tspan><tspan x="7.6" y="0" fill="#595857" font-family="'GillSans-Light'" font-size="9px">k</tspan></text>
<text id="XMLID_30_" transform="matrix(1 0 0 1 60.8271 324.5845)" fill="#595857" font-family="'GillSans-Light'" font-size="9px">5</text>
<text id="XMLID_29_" transform="matrix(1 0 0 1 111.0205 324.5845)"><tspan x="0" y="0" fill="#595857" font-family="'GillSans-Light'" font-size="9px">4</tspan><tspan x="4.2" y="0" fill="#595857" font-family="'GillSans-Light'" font-size="9px">3</tspan><tspan x="8.9" y="0" fill="#595857" font-family="'GillSans-Light'" font-size="9px">, </tspan><tspan x="13" y="0" fill="#595857" font-family="'GillSans-Light'" font-size="9px">4</tspan><tspan x="17.7" y="0" fill="#595857" font-family="'GillSans-Light'" font-size="9px">8</tspan><tspan x="22.5" y="0" fill="#595857" font-family="'GillSans-Light'" font-size="9px">, </tspan><tspan x="26.5" y="0" fill="#595857" font-family="'GillSans-Light'" font-size="9px">5</tspan><tspan x="31.1" y="0" fill="#595857" font-family="'GillSans-Light'" font-size="9px">0</tspan><tspan x="35.8" y="0" fill="#595857" font-family="'GillSans-Light'" font-size="9px">, </tspan><tspan x="39.9" y="0" fill="#595857" font-family="'GillSans-Light'" font-size="9px">5</tspan><tspan x="44.3" y="0" fill="#595857" font-family="'GillSans-Light'" font-size="9px">2</tspan><tspan x="49" y="0" fill="#595857" font-family="'GillSans-Light'" font-size="9px">, </tspan><tspan x="53.1" y="0" fill="#595857" font-family="'GillSans-Light'" font-size="9px">5</tspan><tspan x="57.6" y="0" fill="#595857" font-family="'GillSans-Light'" font-size="9px">5</tspan></text>
<text id="XMLID_28_" transform="matrix(1 0 0 1 213.4404 324.5845)"><tspan x="0" y="0" fill="#595857" font-family="'GillSans-Light'" font-size="9px">1</tspan><tspan x="4.2" y="0" fill="#595857" font-family="'GillSans-Light'" font-size="9px">0</tspan><tspan x="9" y="0" fill="#595857" font-family="'GillSans-Light'" font-size="9px">%</tspan></text>
</svg>
