<?xml version="1.0" encoding="utf-8"?>
<!-- Generator: Adobe Illustrator 18.1.1, SVG Export Plug-In . SVG Version: 6.00 Build 0)  -->
<svg version="1.1" id="Capa_1" xmlns="http://www.w3.org/2000/svg" xmlns:xlink="http://www.w3.org/1999/xlink" x="0px" y="0px"
	 viewBox="0 0 196.5 115.5" enable-background="new 0 0 196.5 115.5" xml:space="preserve">
<g>
	<g>
		
			<radialGradient id="SVGID_1_" cx="49.1903" cy="136.3361" r="27.5916" gradientTransform="matrix(1 0 0 0.2788 0 30.0365)" gradientUnits="userSpaceOnUse">
			<stop  offset="0" style="stop-color:#525252"/>
			<stop  offset="0.17" style="stop-color:#808080"/>
			<stop  offset="0.3618" style="stop-color:#ADADAD"/>
			<stop  offset="0.5462" style="stop-color:#D1D1D1"/>
			<stop  offset="0.7188" style="stop-color:#EAEAEA"/>
			<stop  offset="0.8749" style="stop-color:#FAFAFA"/>
			<stop  offset="1" style="stop-color:#FFFFFF"/>
		</radialGradient>
		<ellipse fill="url(#SVGID_1_)" cx="49.2" cy="68" rx="27.6" ry="7.7"/>
		<radialGradient id="SVGID_2_" cx="55.2108" cy="49.4887" r="41.6165" gradientUnits="userSpaceOnUse">
			<stop  offset="0" style="stop-color:#255366"/>
			<stop  offset="1" style="stop-color:#000100"/>
		</radialGradient>
		<path fill="url(#SVGID_2_)" d="M73.6,45.2c0,0,0.5-8.8-6.1-14.2c-0.8-0.7-2.1,2.5-2.1,2.5l-2.3,8.9c0,0,1.8-0.1,2,0.1
			c2.7,2.2,2.6,6.6,1.7,9.5c-1.2,4.2-5.8,15-24.4,14.4c13.7,1.5,21.3-0.3,29.9-14.1C72.6,49.4,73.6,45.2,73.6,45.2z"/>
		<path fill="#E4A150" d="M29.6,33.1C24.2,41,24.4,53.3,34,59.9c11.8,8,23.7-1.1,23.7-1.1s-25.8-3-26.5-19.8
			c0.2-4.5,3.2-14.1,15.2-15.7c0.5-0.3,1-0.6,1.4-0.8C39.9,23.2,32.8,27.8,29.6,33.1z"/>
		<radialGradient id="SVGID_3_" cx="58.8763" cy="34.5436" r="12.3208" gradientUnits="userSpaceOnUse">
			<stop  offset="0.5455" style="stop-color:#4CB3CF"/>
			<stop  offset="1" style="stop-color:#297FC2"/>
		</radialGradient>
		<path fill="url(#SVGID_3_)" d="M69.5,32.7c-6.2-8.3-14.3-10.9-21.6-10.2c-0.5,0.3-0.9,0.6-1.4,0.8c0.9-0.1,1.7-0.2,2.7-0.2
			c0,0,8.8,0.3,11.8,4.5c2.6,3.6,3,8.4,0,14.6c5.5,5.9,7.1,4.3,7.1,4.3S74.4,40.2,69.5,32.7z"/>
		<radialGradient id="SVGID_4_" cx="40.2157" cy="42.065" r="49.1657" gradientUnits="userSpaceOnUse">
			<stop  offset="0" style="stop-color:#000100"/>
			<stop  offset="0.4545" style="stop-color:#284C2C"/>
		</radialGradient>
		<path fill="url(#SVGID_4_)" d="M52.7,23.3c-2.1-0.3-4.2-0.3-6.2,0c-0.4,0.2-0.9,0.5-1.4,0.7c0.5-0.2,0.9-0.5,1.4-0.7
			C39.8,24.2,34,28,31.6,35.7c-0.9,4.2-1.4,13.6,14.3,20c-2.5-1-4.9-5.2-5.8-7.5c-4-10.8,5.4-19.9,15.5-18.3
			c2.5,0.4,5.7,1.6,7.5,3.5C62.5,30.4,61.9,24.4,52.7,23.3z"/>
		<linearGradient id="SVGID_5_" gradientUnits="userSpaceOnUse" x1="30.5521" y1="56.5463" x2="73.882" y2="56.5463">
			<stop  offset="0" style="stop-color:#CB2128"/>
			<stop  offset="0.4909" style="stop-color:#A21A1F"/>
			<stop  offset="1" style="stop-color:#841014"/>
		</linearGradient>
		<path fill="url(#SVGID_5_)" d="M30.6,60c0,0,5.9,12.9,25.8,9.5c0,0,20.3-5.5,17.2-26.5c-1.2,10.8-7.1,20.7-19.8,22.8
			C39.2,68.1,32.8,63.3,30.6,60z"/>
		<defs>
			<filter id="Adobe_OpacityMaskFilter" filterUnits="userSpaceOnUse" x="23.1" y="35.7" width="0" height="0">
				<feFlood  style="flood-color:white;flood-opacity:1" result="back"/>
				<feBlend  in="SourceGraphic" in2="back" mode="normal"/>
			</filter>
		</defs>
		<mask maskUnits="userSpaceOnUse" x="23.1" y="35.7" width="0" height="0" id="SVGID_6_">
			<g filter="url(#Adobe_OpacityMaskFilter)">
				<defs>
					<filter id="Adobe_OpacityMaskFilter_1_" filterUnits="userSpaceOnUse" x="23.1" y="35.7" width="0" height="0">
						<feFlood  style="flood-color:white;flood-opacity:1" result="back"/>
						<feBlend  in="SourceGraphic" in2="back" mode="normal"/>
					</filter>
				</defs>
				<mask maskUnits="userSpaceOnUse" x="23.1" y="35.7" width="0" height="0" id="SVGID_6_">
					<g filter="url(#Adobe_OpacityMaskFilter_1_)">
					</g>
				</mask>
				<linearGradient id="SVGID_7_" gradientUnits="userSpaceOnUse" x1="23.1125" y1="35.6929" x2="23.1125" y2="35.6929">
					<stop  offset="0" style="stop-color:#FFFFFF"/>
					<stop  offset="6.285286e-02" style="stop-color:#DADADA"/>
					<stop  offset="0.1601" style="stop-color:#A7A7A7"/>
					<stop  offset="0.2621" style="stop-color:#7B7B7B"/>
					<stop  offset="0.3668" style="stop-color:#555555"/>
					<stop  offset="0.475" style="stop-color:#363636"/>
					<stop  offset="0.5878" style="stop-color:#1E1E1E"/>
					<stop  offset="0.7072" style="stop-color:#0D0D0D"/>
					<stop  offset="0.8376" style="stop-color:#030303"/>
					<stop  offset="1" style="stop-color:#000000"/>
				</linearGradient>
				<path mask="url(#SVGID_6_)" fill="url(#SVGID_7_)" d="M23.1,35.7"/>
			</g>
		</mask>
		<linearGradient id="SVGID_8_" gradientUnits="userSpaceOnUse" x1="23.1125" y1="35.6929" x2="23.1125" y2="35.6929">
			<stop  offset="0" style="stop-color:#221E1F"/>
			<stop  offset="8.962709e-02" style="stop-color:#221E1F"/>
			<stop  offset="1" style="stop-color:#221E1F"/>
		</linearGradient>
		<path fill="url(#SVGID_8_)" d="M23.1,35.7"/>
	</g>
	<g>
		<path fill="#555B63" d="M134.3,69.9H124V45.5l-12.1,14.2h-1L98.7,45.5v24.5h-9.9V27.7h7.9l14.8,15.8l14.9-15.8h7.9V69.9z"/>
		<path fill="#555B63" d="M174.9,41c0,1.6-0.3,3.1-0.8,4.6c-0.5,1.5-1.4,2.9-2.6,4.2c-1.2,1.3-2.8,2.3-4.9,3.1
			c-2,0.8-4.4,1.2-7.2,1.2h-6.5v15.8H142V27.7h17.4c2.8,0,5.2,0.4,7.2,1.2c2,0.8,3.7,1.9,4.9,3.2c1.2,1.3,2.1,2.7,2.6,4.2
			C174.6,37.8,174.9,39.4,174.9,41z M161.9,41c0-2-0.6-3.4-1.8-4.1c-1.2-0.7-1.5-1.1-4.5-1.1h-2.7V46h2.7c2.1,0,1.9-0.1,3-0.4
			c1.1-0.3,2-0.8,2.5-1.5C161.7,43.4,161.9,42.4,161.9,41z"/>
	</g>
	<g>
		<path fill="#262424" d="M32.3,84h0.9v6.9h-1v-5.3l-2.1,2.6h-0.2l-2.1-2.6v5.3h-1V84h0.9l2.3,2.8L32.3,84z"/>
		<path fill="#262424" d="M41.4,88.6h-3.2c0,0.4,0.2,0.8,0.4,1c0.3,0.3,0.6,0.4,1,0.4c0.6,0,1.1-0.2,1.6-0.5v0.9
			c-0.3,0.2-0.5,0.3-0.8,0.4c-0.3,0.1-0.6,0.1-0.9,0.1c-0.5,0-0.9-0.1-1.2-0.3c-0.3-0.2-0.6-0.5-0.7-0.8c-0.2-0.3-0.3-0.8-0.3-1.2
			c0-0.7,0.2-1.2,0.6-1.7c0.4-0.4,0.9-0.6,1.5-0.6c0.6,0,1.1,0.2,1.4,0.6c0.4,0.4,0.5,1,0.5,1.7V88.6z M38.2,88.1h2.3
			c0-0.4-0.1-0.6-0.3-0.8C40,87.1,39.7,87,39.4,87c-0.3,0-0.6,0.1-0.8,0.3C38.4,87.5,38.3,87.7,38.2,88.1z"/>
		<path fill="#262424" d="M48.2,88.1V90c0,0.2,0.1,0.2,0.2,0.2c0.1,0,0.3-0.1,0.5-0.2v0.5c-0.2,0.1-0.4,0.2-0.5,0.3
			c-0.1,0-0.3,0.1-0.4,0.1c-0.4,0-0.6-0.1-0.7-0.5c-0.4,0.3-0.8,0.4-1.2,0.4c-0.3,0-0.6-0.1-0.8-0.3c-0.2-0.2-0.3-0.5-0.3-0.8
			c0-0.3,0.1-0.5,0.3-0.8c0.2-0.2,0.5-0.4,0.9-0.5l1.1-0.4v-0.2c0-0.5-0.3-0.8-0.8-0.8c-0.5,0-1,0.3-1.4,0.8v-1
			c0.3-0.4,0.8-0.6,1.5-0.6c0.5,0,0.9,0.1,1.2,0.4c0.1,0.1,0.2,0.2,0.3,0.3c0.1,0.1,0.1,0.3,0.1,0.4C48.2,87.5,48.2,87.7,48.2,88.1z
			 M47.3,89.9v-1.3l-0.6,0.2c-0.3,0.1-0.5,0.2-0.6,0.4c-0.1,0.1-0.2,0.3-0.2,0.5c0,0.2,0.1,0.3,0.2,0.5c0.1,0.1,0.3,0.2,0.5,0.2
			C46.8,90.3,47.1,90.1,47.3,89.9z"/>
		<path fill="#262424" d="M52,87l1.7-1.6v0.9h1.4v0.8h-1.4v2.2c0,0.5,0.2,0.8,0.6,0.8c0.3,0,0.7-0.1,1-0.3v0.8
			c-0.3,0.2-0.7,0.3-1.1,0.3c-0.4,0-0.7-0.1-1-0.4c-0.1-0.1-0.2-0.2-0.2-0.2c-0.1-0.1-0.1-0.2-0.1-0.4c0-0.1-0.1-0.4-0.1-0.8v-2
			L52,87L52,87z"/>
		<path fill="#262424" d="M69.2,90.8l-0.8-0.9c-0.1,0.1-0.2,0.2-0.4,0.3l0,0c-0.2,0.2-0.5,0.4-0.9,0.5c-0.3,0.1-0.7,0.2-1,0.2
			c-0.5,0-0.9-0.2-1.2-0.5c-0.3-0.3-0.5-0.7-0.5-1.1c0-0.3,0.1-0.6,0.2-0.9c0.2-0.3,0.4-0.5,0.8-0.8l0,0c0.2-0.2,0.4-0.3,0.6-0.4
			c-0.5-0.6-0.8-1.1-0.8-1.6c0-0.5,0.2-0.8,0.5-1.1c0.3-0.3,0.7-0.4,1.2-0.4c0.5,0,0.9,0.1,1.2,0.4c0.3,0.3,0.5,0.6,0.5,1.1
			c0,0.6-0.4,1.2-1.2,1.7l-0.1,0.1l1,1.1c0.3-0.3,0.5-0.7,0.7-1.1h1c-0.2,0.6-0.6,1.2-1.1,1.8l1.4,1.6H69.2z M67.5,89.4l0.2-0.2
			l-1.1-1.3l-0.4,0.3c-0.5,0.3-0.8,0.7-0.8,1c0,0.2,0.1,0.4,0.3,0.5c0.2,0.1,0.4,0.2,0.6,0.2c0.2,0,0.4-0.1,0.6-0.2
			C67.2,89.7,67.4,89.6,67.5,89.4z M66.9,86.7l0.4-0.3c0.3-0.2,0.5-0.5,0.5-0.9c0-0.2-0.1-0.4-0.2-0.5c-0.1-0.1-0.3-0.2-0.6-0.2
			c-0.2,0-0.4,0.1-0.5,0.2c-0.1,0.1-0.2,0.3-0.2,0.5c0,0.2,0.1,0.4,0.2,0.6C66.6,86.4,66.7,86.6,66.9,86.7z"/>
		<path fill="#262424" d="M80,90.8v-6.9h2.2c0.7,0,1.2,0.2,1.6,0.5c0.4,0.4,0.6,0.8,0.6,1.4c0,0.4-0.1,0.8-0.3,1.1
			c-0.2,0.3-0.5,0.5-0.8,0.7c-0.3,0.1-0.8,0.2-1.5,0.2H81v3H80z M82,84.8h-1V87H82c0.4,0,0.7-0.1,0.9-0.3c0.2-0.2,0.3-0.5,0.3-0.8
			C83.3,85.2,82.9,84.8,82,84.8z"/>
		<path fill="#262424" d="M90.9,88.1V90c0,0.2,0.1,0.2,0.2,0.2c0.1,0,0.3-0.1,0.5-0.2v0.5c-0.2,0.1-0.4,0.2-0.5,0.3
			c-0.1,0-0.3,0.1-0.4,0.1c-0.4,0-0.6-0.1-0.7-0.5c-0.4,0.3-0.8,0.4-1.2,0.4c-0.3,0-0.6-0.1-0.8-0.3c-0.2-0.2-0.3-0.5-0.3-0.8
			c0-0.3,0.1-0.5,0.3-0.8c0.2-0.2,0.5-0.4,0.9-0.5l1.1-0.4v-0.2c0-0.5-0.3-0.8-0.8-0.8c-0.5,0-1,0.3-1.4,0.8v-1
			c0.3-0.4,0.8-0.6,1.5-0.6c0.5,0,0.9,0.1,1.2,0.4c0.1,0.1,0.2,0.2,0.3,0.3c0.1,0.1,0.1,0.3,0.1,0.4C90.9,87.5,90.9,87.7,90.9,88.1z
			 M90,89.9v-1.3l-0.6,0.2c-0.3,0.1-0.5,0.2-0.6,0.4c-0.1,0.1-0.2,0.3-0.2,0.5c0,0.2,0.1,0.3,0.2,0.5c0.1,0.1,0.3,0.2,0.5,0.2
			C89.5,90.3,89.8,90.1,90,89.9z"/>
		<path fill="#262424" d="M98.7,89.8v0.9c-0.4,0.2-0.9,0.2-1.3,0.2c-0.7,0-1.3-0.2-1.7-0.6c-0.4-0.4-0.6-1-0.6-1.7
			c0-0.7,0.2-1.3,0.6-1.7c0.4-0.4,0.9-0.7,1.6-0.7c0.2,0,0.4,0,0.6,0.1c0.2,0,0.4,0.1,0.7,0.2v1c-0.5-0.3-0.9-0.4-1.3-0.4
			c-0.4,0-0.7,0.1-1,0.4c-0.3,0.3-0.4,0.6-0.4,1.1c0,0.5,0.1,0.8,0.4,1.1c0.3,0.3,0.7,0.4,1.1,0.4C97.9,90.1,98.3,90,98.7,89.8z"/>
		<path fill="#262424" d="M102.8,84h0.9v6.9h-0.9V84z M105.7,86.3h1.1l-1.9,2.2l2.3,2.3h-1.2l-2.3-2.3L105.7,86.3z"/>
		<path fill="#262424" d="M111,84.4c0.1,0,0.3,0.1,0.4,0.2c0.1,0.1,0.2,0.2,0.2,0.4c0,0.1-0.1,0.3-0.2,0.4c-0.1,0.1-0.2,0.2-0.4,0.2
			c-0.1,0-0.3-0.1-0.4-0.2c-0.1-0.1-0.2-0.2-0.2-0.4c0-0.1,0.1-0.3,0.2-0.4C110.8,84.4,110.9,84.4,111,84.4z M110.6,86.3h0.9v4.5
			h-0.9V86.3z"/>
		<path fill="#262424" d="M116.7,86.3v0.6c0.4-0.4,0.9-0.7,1.4-0.7c0.3,0,0.5,0.1,0.8,0.2c0.2,0.1,0.4,0.3,0.6,0.6
			c0.1,0.3,0.2,0.7,0.2,1.2v2.6h-0.9v-2.6c0-0.5-0.1-0.8-0.2-1c-0.1-0.2-0.4-0.3-0.7-0.3c-0.4,0-0.8,0.2-1.1,0.6v3.2h-0.9v-4.5
			H116.7z"/>
		<path fill="#262424" d="M123.6,87.9c0-0.5,0.2-0.9,0.5-1.1c0.4-0.3,0.8-0.4,1.4-0.4h1.9V87h-0.9c0.2,0.2,0.3,0.3,0.4,0.5
			c0.1,0.1,0.1,0.3,0.1,0.5c0,0.2-0.1,0.5-0.2,0.7c-0.1,0.2-0.3,0.4-0.5,0.5s-0.6,0.2-1,0.3c-0.3,0-0.5,0.2-0.5,0.3
			c0,0.1,0.1,0.2,0.2,0.3c0.1,0.1,0.4,0.1,0.7,0.2c0.6,0.1,0.9,0.2,1.1,0.3c0.2,0.1,0.3,0.2,0.4,0.3c0.2,0.2,0.3,0.5,0.3,0.8
			c0,0.4-0.2,0.8-0.6,1c-0.4,0.3-0.9,0.4-1.5,0.4c-0.6,0-1.2-0.1-1.5-0.4c-0.4-0.3-0.6-0.6-0.6-1c0-0.6,0.4-1,1.1-1.2
			c-0.3-0.2-0.5-0.4-0.5-0.6c0-0.1,0.1-0.3,0.2-0.4c0.1-0.1,0.3-0.2,0.5-0.3C123.9,89,123.6,88.5,123.6,87.9z M125.1,91
			c-0.3,0-0.5,0.1-0.7,0.2s-0.3,0.3-0.3,0.5c0,0.5,0.4,0.7,1.3,0.7c0.4,0,0.7-0.1,0.9-0.2c0.2-0.1,0.3-0.3,0.3-0.5
			c0-0.2-0.1-0.4-0.4-0.5C125.9,91.1,125.5,91,125.1,91z M125.3,87.1c-0.2,0-0.4,0.1-0.6,0.2c-0.2,0.2-0.3,0.4-0.3,0.6
			c0,0.2,0.1,0.4,0.2,0.6c0.2,0.2,0.4,0.2,0.6,0.2c0.3,0,0.5-0.1,0.6-0.2c0.2-0.2,0.3-0.3,0.3-0.6c0-0.2-0.1-0.4-0.3-0.6
			C125.7,87.1,125.5,87.1,125.3,87.1z"/>
		<path fill="#262424" d="M140.8,87.4h2.3v2.9c-0.8,0.4-1.7,0.5-2.5,0.5c-1.1,0-2-0.3-2.7-1c-0.7-0.7-1-1.5-1-2.4
			c0-1,0.4-1.9,1.1-2.6c0.7-0.7,1.6-1,2.6-1c0.4,0,0.8,0,1.1,0.1c0.3,0.1,0.8,0.2,1.3,0.5v1c-0.8-0.5-1.6-0.7-2.4-0.7
			c-0.7,0-1.4,0.3-1.9,0.8c-0.5,0.5-0.8,1.1-0.8,1.9c0,0.8,0.3,1.4,0.8,1.9c0.5,0.5,1.2,0.7,2,0.7c0.4,0,0.9-0.1,1.4-0.3l0.1,0v-1.4
			h-1.3V87.4z"/>
		<path fill="#262424" d="M148.3,86.3v1l0-0.1c0.4-0.7,0.9-1,1.3-1c0.3,0,0.7,0.2,1.1,0.5l-0.5,0.8c-0.3-0.3-0.6-0.4-0.9-0.4
			c-0.3,0-0.5,0.1-0.7,0.4c-0.2,0.3-0.3,0.6-0.3,1v2.4h-0.9v-4.5H148.3z"/>
		<path fill="#262424" d="M156.3,86.3c0.7,0,1.3,0.2,1.7,0.7c0.5,0.4,0.7,1,0.7,1.7c0,0.7-0.2,1.2-0.7,1.6c-0.5,0.4-1,0.6-1.7,0.6
			c-0.7,0-1.2-0.2-1.7-0.7c-0.5-0.4-0.7-1-0.7-1.6c0-0.7,0.2-1.2,0.7-1.7C155,86.5,155.6,86.3,156.3,86.3z M156.2,87.1
			c-0.4,0-0.8,0.1-1.1,0.4s-0.4,0.6-0.4,1.1c0,0.4,0.1,0.8,0.4,1.1c0.3,0.3,0.6,0.4,1.1,0.4c0.4,0,0.8-0.1,1.1-0.4
			c0.3-0.3,0.4-0.6,0.4-1.1c0-0.4-0.1-0.8-0.4-1.1C157,87.2,156.7,87.1,156.2,87.1z"/>
		<path fill="#262424" d="M165.5,90.8v-0.6c-0.2,0.2-0.4,0.4-0.6,0.5c-0.2,0.1-0.5,0.2-0.7,0.2c-0.3,0-0.5-0.1-0.8-0.2
			c-0.2-0.1-0.4-0.3-0.5-0.6c-0.1-0.2-0.2-0.6-0.2-1.2v-2.6h0.9v2.6c0,0.5,0.1,0.8,0.2,1c0.1,0.2,0.4,0.3,0.7,0.3
			c0.4,0,0.8-0.2,1.1-0.6v-3.2h0.9v4.5H165.5z"/>
		<path fill="#262424" d="M170.7,93.1v-6.8h1.6c0.8,0,1.4,0.2,1.9,0.6c0.4,0.4,0.7,1,0.7,1.7c0,0.7-0.2,1.2-0.6,1.7
			c-0.4,0.4-1,0.7-1.6,0.7c-0.3,0-0.6-0.1-1-0.2v2.4H170.7z M172.2,87.1h-0.6v2.8c0.3,0.1,0.6,0.2,0.9,0.2c0.4,0,0.8-0.1,1-0.4
			c0.3-0.3,0.4-0.7,0.4-1.1c0-0.3-0.1-0.6-0.2-0.8c-0.1-0.2-0.3-0.4-0.5-0.5C172.9,87.2,172.6,87.1,172.2,87.1z"/>
	</g>
</g>
</svg>
