<?xml version="1.0" encoding="utf-8"?>
<!-- Generator: Adobe Illustrator 18.1.1, SVG Export Plug-In . SVG Version: 6.00 Build 0)  -->
<svg version="1.1" id="Capa_1" xmlns="http://www.w3.org/2000/svg" xmlns:xlink="http://www.w3.org/1999/xlink" x="0px" y="0px"
	 viewBox="0 0 175.2 56" enable-background="new 0 0 175.2 56" xml:space="preserve">
<g id="logoEpcys_1_">
	<g>
		<path fill="#FFFFFF" d="M48.4,41.5v-21h18.8v3.7H52v13.7h15.1v3.7H48.4z M54.7,32.3v-3.1h11.6v3.1H54.7z"/>
		<path fill="#FFFFFF" d="M76.6,35.6v-3.6h8.4c1.3,0,2.3-0.4,3-1.1c0.7-0.7,1.1-1.7,1.1-2.9c0-1.2-0.4-2.2-1.1-2.9
			c-0.7-0.7-1.7-1.1-3-1.1H74v17.3h-3.7v-21h14.8c1.2,0,2.3,0.2,3.2,0.5c1,0.4,1.8,0.9,2.4,1.5c0.7,0.6,1.2,1.4,1.5,2.4
			c0.3,0.9,0.5,2,0.5,3.1c0,1.1-0.2,2.2-0.5,3.1c-0.3,0.9-0.8,1.7-1.5,2.4c-0.7,0.7-1.5,1.2-2.4,1.6c-1,0.4-2,0.6-3.2,0.6H76.6z"/>
		<path fill="#FFFFFF" d="M104.9,41.5c-1.5,0-2.8-0.3-4.1-0.8c-1.2-0.5-2.3-1.3-3.2-2.3c-0.9-1-1.6-2.1-2.1-3.4
			c-0.5-1.3-0.8-2.7-0.8-4.2c0-1.5,0.3-2.9,0.8-4.2c0.5-1.3,1.2-2.4,2.1-3.2c0.9-0.9,2-1.6,3.2-2.1c1.2-0.5,2.6-0.7,4.1-0.7h11.4
			v3.7h-11.4c-0.9,0-1.8,0.2-2.6,0.5c-0.8,0.3-1.5,0.8-2.1,1.4c-0.6,0.6-1,1.3-1.4,2.1c-0.3,0.8-0.5,1.7-0.5,2.7
			c0,1,0.2,1.9,0.5,2.7c0.3,0.8,0.8,1.6,1.4,2.2c0.6,0.6,1.3,1.1,2.1,1.4c0.8,0.3,1.7,0.5,2.6,0.5h11.4v3.7H104.9z"/>
		<path fill="#FFFFFF" d="M129,41.5v-8l-11.1-13h4.9l8.2,9.7l8.2-9.7h4.7l-11.2,13v8H129z"/>
		<path fill="#FFFFFF" d="M144.4,41.5v-3.7h15.7c1,0,1.7-0.2,2.3-0.8c0.5-0.5,0.8-1.2,0.8-2c0-0.9-0.3-1.6-0.8-2.1
			c-0.5-0.4-1.3-0.7-2.3-0.7h-9.6c-1,0-1.9-0.1-2.7-0.4c-0.8-0.3-1.5-0.7-2-1.2c-0.5-0.5-1-1.2-1.3-1.9c-0.3-0.7-0.4-1.5-0.4-2.4
			c0-0.8,0.1-1.6,0.4-2.4c0.3-0.7,0.7-1.3,1.2-1.9c0.5-0.5,1.2-0.9,2-1.2c0.8-0.3,1.7-0.4,2.8-0.4h15.1v3.7h-15.1
			c-0.9,0-1.5,0.2-2,0.7c-0.5,0.5-0.7,1.1-0.7,1.9c0,0.8,0.2,1.4,0.7,1.9c0.5,0.4,1.1,0.7,1.9,0.7h9.6c2.2,0,3.8,0.5,4.9,1.5
			c1.1,1,1.6,2.5,1.6,4.6c0,0.9-0.1,1.7-0.4,2.5c-0.3,0.8-0.7,1.4-1.2,1.9c-0.5,0.5-1.2,1-2,1.3c-0.8,0.3-1.8,0.5-2.9,0.5H144.4z"/>
	</g>
	<g>
		<path fill="#FFFFFF" d="M98.2,48.7c-0.2,0.1-0.6,0.2-1.1,0.2c-1.4,0-2.2-0.9-2.2-2.2c0-1.4,1-2.3,2.4-2.3c0.5,0,0.9,0.1,1.1,0.2
			l-0.2,0.6c-0.2-0.1-0.5-0.2-0.9-0.2c-0.9,0-1.5,0.6-1.5,1.6c0,1,0.6,1.6,1.5,1.6c0.3,0,0.7-0.1,0.9-0.2L98.2,48.7z"/>
		<path fill="#FFFFFF" d="M102.6,46.6c0,1.5-0.9,2.3-2.1,2.3c-1.2,0-2-1-2-2.2c0-1.4,0.9-2.3,2.1-2.3
			C101.9,44.4,102.6,45.4,102.6,46.6z M99.4,46.7c0,0.9,0.5,1.6,1.2,1.6c0.8,0,1.2-0.7,1.2-1.6c0-0.8-0.4-1.6-1.2-1.6
			C99.8,45,99.4,45.8,99.4,46.7z"/>
		<path fill="#FFFFFF" d="M107,47.1c0-0.6-0.1-1.3-0.1-1.8h0c-0.1,0.5-0.3,1.1-0.5,1.7l-0.6,1.9h-0.6l-0.6-1.9
			c-0.2-0.6-0.3-1.2-0.4-1.7h0c0,0.6,0,1.3-0.1,1.9l-0.1,1.8h-0.8l0.3-4.4h1.1l0.6,1.8c0.2,0.5,0.3,1,0.4,1.5h0
			c0.1-0.5,0.3-1,0.4-1.5l0.6-1.8h1l0.3,4.4h-0.8L107,47.1z"/>
		<path fill="#FFFFFF" d="M111.2,46.9h-1.7v1.3h1.9v0.7h-2.7v-4.4h2.6v0.7h-1.8v1.1h1.7V46.9z"/>
		<path fill="#FFFFFF" d="M112.1,44.5c0.3-0.1,0.8-0.1,1.2-0.1c0.6,0,1.1,0.1,1.4,0.4c0.2,0.2,0.4,0.5,0.4,0.9c0,0.6-0.4,1-0.8,1.1
			v0c0.3,0.1,0.5,0.4,0.6,0.8c0.1,0.5,0.3,1.1,0.3,1.2h-0.8c-0.1-0.1-0.2-0.5-0.3-1c-0.1-0.6-0.3-0.8-0.8-0.8h-0.4v1.8h-0.8V44.5z
			 M112.9,46.5h0.5c0.5,0,0.9-0.3,0.9-0.7c0-0.5-0.3-0.7-0.9-0.7c-0.3,0-0.4,0-0.5,0V46.5z"/>
		<path fill="#FFFFFF" d="M119,48.7c-0.2,0.1-0.6,0.2-1.1,0.2c-1.4,0-2.2-0.9-2.2-2.2c0-1.4,1-2.3,2.4-2.3c0.5,0,0.9,0.1,1.1,0.2
			l-0.2,0.6c-0.2-0.1-0.5-0.2-0.9-0.2c-0.9,0-1.5,0.6-1.5,1.6c0,1,0.6,1.6,1.5,1.6c0.3,0,0.7-0.1,0.9-0.2L119,48.7z"/>
		<path fill="#FFFFFF" d="M120.4,44.5v4.4h-0.8v-4.4H120.4z"/>
		<path fill="#FFFFFF" d="M122.2,47.6l-0.4,1.2H121l1.4-4.4h1l1.4,4.4H124l-0.4-1.2H122.2z M123.5,47l-0.3-1.1
			c-0.1-0.3-0.2-0.6-0.2-0.8h0c-0.1,0.3-0.1,0.6-0.2,0.8l-0.3,1.1H123.5z"/>
		<path fill="#FFFFFF" d="M125.5,44.5h0.8v3.7h1.8v0.7h-2.6V44.5z"/>
		<path fill="#FFFFFF" d="M129.5,44.5v4.4h-0.8v-4.4H129.5z"/>
		<path fill="#FFFFFF" d="M130.1,48.4l2.2-3.3v0h-2v-0.7h3.1v0.5l-2.2,3.2v0h2.3v0.7h-3.3V48.4z"/>
		<path fill="#FFFFFF" d="M135,47.6l-0.4,1.2h-0.8l1.4-4.4h1l1.4,4.4h-0.9l-0.4-1.2H135z M136.3,47l-0.3-1.1
			c-0.1-0.3-0.2-0.6-0.2-0.8h0c-0.1,0.3-0.1,0.6-0.2,0.8l-0.3,1.1H136.3z"/>
		<path fill="#FFFFFF" d="M138.3,44.5c0.4-0.1,0.8-0.1,1.3-0.1c0.8,0,1.4,0.2,1.8,0.5c0.4,0.3,0.7,0.9,0.7,1.6
			c0,0.8-0.3,1.4-0.7,1.7c-0.4,0.4-1.1,0.6-2,0.6c-0.5,0-0.8,0-1.1-0.1V44.5z M139.1,48.3c0.1,0,0.3,0,0.4,0c1,0,1.7-0.6,1.7-1.7
			c0-1-0.6-1.5-1.6-1.5c-0.3,0-0.4,0-0.5,0V48.3z"/>
		<path fill="#FFFFFF" d="M146.7,46.6c0,1.5-0.9,2.3-2.1,2.3c-1.2,0-2-1-2-2.2c0-1.4,0.9-2.3,2.1-2.3
			C145.9,44.4,146.7,45.4,146.7,46.6z M143.4,46.7c0,0.9,0.5,1.6,1.2,1.6c0.8,0,1.2-0.7,1.2-1.6c0-0.8-0.4-1.6-1.2-1.6
			C143.8,45,143.4,45.8,143.4,46.7z"/>
		<path fill="#FFFFFF" d="M147.4,44.5c0.3-0.1,0.8-0.1,1.2-0.1c0.6,0,1.1,0.1,1.4,0.4c0.2,0.2,0.4,0.5,0.4,0.9c0,0.6-0.4,1-0.8,1.1
			v0c0.3,0.1,0.5,0.4,0.6,0.8c0.1,0.5,0.3,1.1,0.3,1.2h-0.8c-0.1-0.1-0.2-0.5-0.3-1c-0.1-0.6-0.3-0.8-0.8-0.8h-0.4v1.8h-0.8V44.5z
			 M148.2,46.5h0.5c0.5,0,0.9-0.3,0.9-0.7c0-0.5-0.3-0.7-0.9-0.7c-0.3,0-0.4,0-0.5,0V46.5z"/>
		<path fill="#FFFFFF" d="M152,47.6l-0.4,1.2h-0.8l1.4-4.4h1l1.4,4.4h-0.9l-0.4-1.2H152z M153.3,47l-0.3-1.1
			c-0.1-0.3-0.2-0.6-0.2-0.8h0c-0.1,0.3-0.1,0.6-0.2,0.8l-0.3,1.1H153.3z"/>
		<path fill="#FFFFFF" d="M156.6,48c0.3,0.1,0.7,0.3,1.1,0.3c0.5,0,0.8-0.2,0.8-0.6c0-0.3-0.2-0.5-0.8-0.7c-0.7-0.3-1.2-0.6-1.2-1.3
			c0-0.7,0.6-1.3,1.6-1.3c0.5,0,0.8,0.1,1.1,0.2l-0.2,0.6c-0.2-0.1-0.5-0.2-0.9-0.2c-0.5,0-0.7,0.3-0.7,0.5c0,0.3,0.3,0.5,0.8,0.7
			c0.8,0.3,1.1,0.7,1.1,1.3c0,0.7-0.5,1.3-1.7,1.3c-0.5,0-1-0.1-1.2-0.3L156.6,48z"/>
		<path fill="#FFFFFF" d="M159.9,48.4c0-0.3,0.2-0.5,0.5-0.5c0.3,0,0.5,0.2,0.5,0.5c0,0.3-0.2,0.5-0.5,0.5
			C160.1,48.9,159.9,48.7,159.9,48.4z"/>
		<path fill="#FFFFFF" d="M162.4,47.6l-0.4,1.2h-0.8l1.4-4.4h1l1.4,4.4h-0.9l-0.4-1.2H162.4z M163.7,47l-0.3-1.1
			c-0.1-0.3-0.2-0.6-0.2-0.8h0c-0.1,0.3-0.1,0.6-0.2,0.8l-0.3,1.1H163.7z"/>
		<path fill="#FFFFFF" d="M165.6,48.4c0-0.3,0.2-0.5,0.5-0.5c0.3,0,0.5,0.2,0.5,0.5c0,0.3-0.2,0.5-0.5,0.5
			C165.8,48.9,165.6,48.7,165.6,48.4z"/>
	</g>
	<path fill="#FFFFFF" d="M38.9,18.5c-3-3.5-7.5-5.8-12.5-5.8c-1.6,0-3.1,0.2-4.5,0.6c2.4,1.2,4.8,2.4,7,3.1
		C31.8,17.4,35.3,18,38.9,18.5z"/>
	<path fill="#FFFFFF" d="M42.1,33.9c-0.1,0.4-0.3,0.8-0.4,1.1c-0.2,0.5-0.4,1-0.7,1.5c-1.5-0.3-2.9-0.7-4.4-1
		c-1.4-0.3-2.8-0.7-4.2-1c-5.2-1.3-11.8-3.4-17.9-3.4c-1.2,0-2.3,0.1-3.5,0.2c-0.3,0-0.6,0.1-0.9,0.2c0-0.2-0.1-0.4-0.1-0.6
		c-0.1-0.6-0.1-1.2-0.1-1.8c0-0.1,0-0.1,0-0.2c1.6-0.3,3.2-0.4,4.8-0.4c3.9,0,8,0.7,11.6,1.6C31.6,31.4,36.8,32.8,42.1,33.9z"/>
	<path fill="#FFFFFF" d="M41.9,19.8c-0.7-0.1-1.5-0.2-2.2-0.2c-4-0.5-7.9-1.1-11.2-2.2c-2.5-0.8-5.3-2.2-8-3.6
		c-0.6-0.3-1.3-0.7-1.9-1c-6.1,2.8-10.1,8.8-10.4,15.5c0.6-0.1,1.1-0.2,1.7-0.3c0,0,0.1,0,0.2,0c1.4-0.2,3-0.3,4.6-0.3
		c3.5,0,7.3,0.5,11.8,1.6c1.6,0.4,3.2,0.8,4.7,1.2c3.6,0.9,7.3,1.8,11,2.7c0,0,0-0.1,0-0.1l0.2,0.2c0.5,0.1,0.9,0.2,1.4,0.3
		c0.3-1.4,0.5-2.8,0.5-4.2C44.5,25.9,43.6,22.6,41.9,19.8z M18.7,20.3c-1.5,0-2.8-1.3-2.8-2.8c0-0.4,0.1-0.8,0.2-1.1
		c0.4-1,1.4-1.6,2.5-1.7h0c1.6,0,2.8,1.2,2.8,2.8S20.2,20.3,18.7,20.3z"/>
	<path fill="#FFFFFF" d="M42.6,33c-0.1,0-0.2,0-0.2-0.1c0,0,0-0.1,0-0.1L42.6,33z"/>
	<path fill="#FFFFFF" d="M40.5,37.5c-2.7-0.6-5.3-1.2-7.6-1.8c-0.2,0-0.5-0.1-0.7-0.2c-0.8-0.2-1.7-0.4-2.6-0.7
		c-4.7-1.2-10-2.7-15.1-2.7c-0.5,0-1,0-1.4,0c-1,0.1-1.9,0.2-2.8,0.4c-0.6,0.1-1.1,0.2-1.6,0.4c1.8,8.3,9.1,14.3,17.7,14.3
		c6.6,0,12.7-3.6,15.8-9.3C41.6,37.8,41.1,37.6,40.5,37.5z M37.3,41.7c-0.5,0.8-1.3,1.2-2,1.2c-0.2,0-0.3-0.1-0.5-0.2
		c-0.7-0.5-0.7-1.7,0-2.7c0.7-1,1.8-1.5,2.5-1c0.5,0.4,0.7,1.2,0.4,2C37.6,41.3,37.5,41.5,37.3,41.7z"/>
	<path fill="#FFFFFF" d="M10.2,27.9L10,28c0,0,0,0,0-0.1C10.1,27.9,10.1,27.9,10.2,27.9z"/>
</g>
</svg>
